# xmcd
#
# Track frame offsets:
#	150
#	23200
#	43782
#	60250
#	85827
#	102435
#	123662
#	139965
#	161110
#	177715
#	194835
#	210725
#	227292
#	251000
#	267255
#	285582
#	304165
#
# Disc length: 4410 seconds
#
# Revision: 0
# Processed by: cddbd v1.5.1PL0 Copyright (c) Steve Scherf et al.
# Submitted via: dBpowerAMP V4.0
#
DISCID=fe113811
DTITLE=Various Artist - The Radio Collection Vol. 14
DYEAR=1997
DGENRE=R&B
TTITLE0=Stomp - Kirk Franklin's Nu Nation
TTITLE1=Takes a little time - Amy Grant
TTITLE2=Flood - Lounge Freak
TTITLE3=Butterfly kisses - Bob Carlisle
TTITLE4=People of God - Hypersonic Praise House
TTITLE5=Let me redeemed - Virtue
TTITLE6=Superhuman - MIC
TTITLE7=Find a little grace - Kenny Rogers
TTITLE8=Miracle - Joe Club
TTITLE9=How's Your Head - Third Day
TTITLE10=Super Busy - Miss Angie
TTITLE11=Deep enough to dream - Chris Rice
TTITLE12=Blink - Rick Elias
TTITLE13=Crazy times - Jars of clay
TTITLE14=I see you - Jeni Vernandeau
TTITLE15=Celebrate - Olso Gospel Choir
TTITLE16=I will offer up my life - MIC
EXTD=
EXTT0=
EXTT1=
EXTT2=
EXTT3=
EXTT4=
EXTT5=
EXTT6=
EXTT7=
EXTT8=
EXTT9=
EXTT10=
EXTT11=
EXTT12=
EXTT13=
EXTT14=
EXTT15=
EXTT16=
PLAYORDER=
